<svg id="visual" viewBox="0 0 1000 1000" width="1000" height="1000" xmlns="http://www.w3.org/2000/svg" xmlns:xlink="http://www.w3.org/1999/xlink" version="1.1"><g stroke-width="1" stroke-linejoin="bevel"><path d="M539.4 475.6L576.9 525L600.4 456Z" fill="#638d9d" stroke="#638d9d"></path><path d="M539.4 475.6L564 548L576.9 525Z" fill="#638d9d" stroke="#638d9d"></path><path d="M688.9 463.6L655.3 416.6L600.4 456Z" fill="#357477" stroke="#357477"></path><path d="M542.4 337.7L473 417.6L539.4 475.6Z" fill="#174d32" stroke="#174d32"></path><path d="M688.9 463.6L600.4 456L576.9 525Z" fill="#c1bfcf" stroke="#c1bfcf"></path><path d="M704.3 485L688.9 463.6L576.9 525Z" fill="#95a5b9" stroke="#95a5b9"></path><path d="M549.4 627.4L581.9 606.9L564 548Z" fill="#236861" stroke="#236861"></path><path d="M564 548L581.9 606.9L576.9 525Z" fill="#174d32" stroke="#174d32"></path><path d="M542.4 337.7L539.4 475.6L600.4 456Z" fill="#174d32" stroke="#174d32"></path><path d="M488 635.4L549.4 627.4L564 548Z" fill="#4b818b" stroke="#4b818b"></path><path d="M705.9 570.4L704.3 485L576.9 525Z" fill="#acb2c5" stroke="#acb2c5"></path><path d="M708.9 340.1L609.9 310.7L655.3 416.6Z" fill="#195b4a" stroke="#195b4a"></path><path d="M488 635.4L564 548L539.4 475.6Z" fill="#195b4a" stroke="#195b4a"></path><path d="M655.3 416.6L542.4 337.7L600.4 456Z" fill="#95a5b9" stroke="#95a5b9"></path><path d="M622.9 657.3L705.9 570.4L581.9 606.9Z" fill="#acb2c5" stroke="#acb2c5"></path><path d="M581.9 606.9L705.9 570.4L576.9 525Z" fill="#c1bfcf" stroke="#c1bfcf"></path><path d="M549.4 627.4L557.4 642.3L581.9 606.9Z" fill="#7c99ac" stroke="#7c99ac"></path><path d="M557.4 642.3L574.4 648.9L581.9 606.9Z" fill="#c1bfcf" stroke="#c1bfcf"></path><path d="M463 358.1L424.1 422.1L473 417.6Z" fill="#638d9d" stroke="#638d9d"></path><path d="M473 417.6L407.6 444L539.4 475.6Z" fill="#95a5b9" stroke="#95a5b9"></path><path d="M549.4 627.4L488 635.4L557.4 642.3Z" fill="#95a5b9" stroke="#95a5b9"></path><path d="M542.4 337.7L463 358.1L473 417.6Z" fill="#4b818b" stroke="#4b818b"></path><path d="M609.9 310.7L557.4 314.1L542.4 337.7Z" fill="#d4ced9" stroke="#d4ced9"></path><path d="M542.4 337.7L482 282.7L463 358.1Z" fill="#4b818b" stroke="#4b818b"></path><path d="M411.6 622.4L488 635.4L539.4 475.6Z" fill="#174d32" stroke="#174d32"></path><path d="M557.4 642.3L571 694.9L574.4 648.9Z" fill="#acb2c5" stroke="#acb2c5"></path><path d="M382.6 408.6L407.6 444L424.1 422.1Z" fill="#d4ced9" stroke="#d4ced9"></path><path d="M424.1 422.1L407.6 444L473 417.6Z" fill="#acb2c5" stroke="#acb2c5"></path><path d="M571 694.9L622.9 657.3L574.4 648.9Z" fill="#c1bfcf" stroke="#c1bfcf"></path><path d="M574.4 648.9L622.9 657.3L581.9 606.9Z" fill="#4b818b" stroke="#4b818b"></path><path d="M708.9 340.1L655.3 416.6L783.7 412.6Z" fill="#acb2c5" stroke="#acb2c5"></path><path d="M655.3 416.6L609.9 310.7L542.4 337.7Z" fill="#174d32" stroke="#174d32"></path><path d="M718.3 637.4L735.7 572.9L705.9 570.4Z" fill="#174d32" stroke="#174d32"></path><path d="M705.9 570.4L735.7 572.9L704.3 485Z" fill="#d4ced9" stroke="#d4ced9"></path><path d="M449.6 276.3L439.6 354.1L463 358.1Z" fill="#357477" stroke="#357477"></path><path d="M463 358.1L439.6 354.1L424.1 422.1Z" fill="#acb2c5" stroke="#acb2c5"></path><path d="M783.7 412.6L688.9 463.6L704.3 485Z" fill="#d4ced9" stroke="#d4ced9"></path><path d="M783.7 412.6L655.3 416.6L688.9 463.6Z" fill="#195b4a" stroke="#195b4a"></path><path d="M411.6 622.4L454.6 642.9L488 635.4Z" fill="#638d9d" stroke="#638d9d"></path><path d="M488 635.4L486 671.3L557.4 642.3Z" fill="#4b818b" stroke="#4b818b"></path><path d="M454.6 642.9L486 671.3L488 635.4Z" fill="#7c99ac" stroke="#7c99ac"></path><path d="M622.9 657.3L718.3 637.4L705.9 570.4Z" fill="#c1bfcf" stroke="#c1bfcf"></path><path d="M486 671.3L571 694.9L557.4 642.3Z" fill="#4b818b" stroke="#4b818b"></path><path d="M764.3 751.3L766.3 686.9L718.3 637.4Z" fill="#d4ced9" stroke="#d4ced9"></path><path d="M439.6 354.1L382.6 408.6L424.1 422.1Z" fill="#acb2c5" stroke="#acb2c5"></path><path d="M407.6 444L411.6 622.4L539.4 475.6Z" fill="#c1bfcf" stroke="#c1bfcf"></path><path d="M399.1 622.9L411.6 622.4L352.1 547.4Z" fill="#4b818b" stroke="#4b818b"></path><path d="M454.6 642.9L400.6 756.3L486 671.3Z" fill="#357477" stroke="#357477"></path><path d="M810.7 538.4L704.3 485L735.7 572.9Z" fill="#638d9d" stroke="#638d9d"></path><path d="M838.7 485L783.7 412.6L704.3 485Z" fill="#236861" stroke="#236861"></path><path d="M352.1 547.4L411.6 622.4L407.6 444Z" fill="#c1bfcf" stroke="#c1bfcf"></path><path d="M411.6 622.4L399.1 622.9L454.6 642.9Z" fill="#d4ced9" stroke="#d4ced9"></path><path d="M517 199.9L482 282.7L557.4 314.1Z" fill="#174d32" stroke="#174d32"></path><path d="M557.4 314.1L482 282.7L542.4 337.7Z" fill="#7c99ac" stroke="#7c99ac"></path><path d="M439.6 354.1L407.6 325.7L382.6 408.6Z" fill="#174d32" stroke="#174d32"></path><path d="M315.7 496L352.1 547.4L407.6 444Z" fill="#4b818b" stroke="#4b818b"></path><path d="M449.6 276.3L407.6 325.7L439.6 354.1Z" fill="#7c99ac" stroke="#7c99ac"></path><path d="M845.1 613.4L810.7 538.4L735.7 572.9Z" fill="#195b4a" stroke="#195b4a"></path><path d="M783.7 412.6L761.3 329.1L708.9 340.1Z" fill="#357477" stroke="#357477"></path><path d="M708.9 340.1L723.3 264.7L609.9 310.7Z" fill="#95a5b9" stroke="#95a5b9"></path><path d="M609.9 310.7L517 199.9L557.4 314.1Z" fill="#95a5b9" stroke="#95a5b9"></path><path d="M477.6 205.9L449.6 276.3L482 282.7Z" fill="#c1bfcf" stroke="#c1bfcf"></path><path d="M482 282.7L449.6 276.3L463 358.1Z" fill="#acb2c5" stroke="#acb2c5"></path><path d="M382.6 408.6L315.7 496L407.6 444Z" fill="#7c99ac" stroke="#7c99ac"></path><path d="M352.1 547.4L338.7 610.4L399.1 622.9Z" fill="#174d32" stroke="#174d32"></path><path d="M290.1 457.6L315.7 496L382.6 408.6Z" fill="#174d32" stroke="#174d32"></path><path d="M810.7 538.4L838.7 485L704.3 485Z" fill="#638d9d" stroke="#638d9d"></path><path d="M783.7 412.6L815.7 328.7L761.3 329.1Z" fill="#d4ced9" stroke="#d4ced9"></path><path d="M761.3 329.1L723.3 264.7L708.9 340.1Z" fill="#d4ced9" stroke="#d4ced9"></path><path d="M309.1 569L338.7 610.4L352.1 547.4Z" fill="#7c99ac" stroke="#7c99ac"></path><path d="M399.1 622.9L400.6 756.3L454.6 642.9Z" fill="#357477" stroke="#357477"></path><path d="M486 671.3L558 756.7L571 694.9Z" fill="#4b818b" stroke="#4b818b"></path><path d="M571 694.9L629.9 791.7L622.9 657.3Z" fill="#4b818b" stroke="#4b818b"></path><path d="M565.4 784.7L558 756.7L423.1 815.7Z" fill="#4b818b" stroke="#4b818b"></path><path d="M780.7 712.3L766.3 686.9L764.3 751.3Z" fill="#638d9d" stroke="#638d9d"></path><path d="M718.3 637.4L845.1 613.4L735.7 572.9Z" fill="#4b818b" stroke="#4b818b"></path><path d="M810.7 538.4L869.1 484L838.7 485Z" fill="#d4ced9" stroke="#d4ced9"></path><path d="M315.7 496L309.1 569L352.1 547.4Z" fill="#4b818b" stroke="#4b818b"></path><path d="M723.3 264.7L698.3 231.3L609.9 310.7Z" fill="#357477" stroke="#357477"></path><path d="M922.1 402.6L815.7 328.7L783.7 412.6Z" fill="#7c99ac" stroke="#7c99ac"></path><path d="M761.3 329.1L820.7 323.1L723.3 264.7Z" fill="#236861" stroke="#236861"></path><path d="M723.3 264.7L727.7 171.3L698.3 231.3Z" fill="#638d9d" stroke="#638d9d"></path><path d="M288.7 379.1L382.6 408.6L306.1 303.7Z" fill="#95a5b9" stroke="#95a5b9"></path><path d="M288.7 379.1L290.1 457.6L382.6 408.6Z" fill="#174d32" stroke="#174d32"></path><path d="M192.3 528L263.3 600.4L309.1 569Z" fill="#acb2c5" stroke="#acb2c5"></path><path d="M910.6 580.9L869.1 484L810.7 538.4Z" fill="#174d32" stroke="#174d32"></path><path d="M838.7 485L869.1 484L783.7 412.6Z" fill="#195b4a" stroke="#195b4a"></path><path d="M640.9 164.3L517 199.9L609.9 310.7Z" fill="#acb2c5" stroke="#acb2c5"></path><path d="M919.1 340.1L820.7 323.1L815.7 328.7Z" fill="#95a5b9" stroke="#95a5b9"></path><path d="M815.7 328.7L820.7 323.1L761.3 329.1Z" fill="#95a5b9" stroke="#95a5b9"></path><path d="M766.3 686.9L845.1 613.4L718.3 637.4Z" fill="#d4ced9" stroke="#d4ced9"></path><path d="M517 199.9L477.6 205.9L482 282.7Z" fill="#357477" stroke="#357477"></path><path d="M331.7 253.7L306.1 303.7L407.6 325.7Z" fill="#174d32" stroke="#174d32"></path><path d="M400.6 756.3L558 756.7L486 671.3Z" fill="#acb2c5" stroke="#acb2c5"></path><path d="M558 756.7L629.9 791.7L571 694.9Z" fill="#acb2c5" stroke="#acb2c5"></path><path d="M727.7 171.3L667.9 196.9L698.3 231.3Z" fill="#638d9d" stroke="#638d9d"></path><path d="M698.3 231.3L667.9 196.9L609.9 310.7Z" fill="#236861" stroke="#236861"></path><path d="M764.3 751.3L718.3 637.4L622.9 657.3Z" fill="#174d32" stroke="#174d32"></path><path d="M766.3 686.9L780.7 712.3L845.1 613.4Z" fill="#4b818b" stroke="#4b818b"></path><path d="M306.1 303.7L382.6 408.6L407.6 325.7Z" fill="#357477" stroke="#357477"></path><path d="M565.4 784.7L629.9 791.7L558 756.7Z" fill="#d4ced9" stroke="#d4ced9"></path><path d="M309.7 724.3L399.1 622.9L338.7 610.4Z" fill="#236861" stroke="#236861"></path><path d="M309.7 724.3L400.6 756.3L399.1 622.9Z" fill="#357477" stroke="#357477"></path><path d="M570.4 133.9L511.4 170.3L517 199.9Z" fill="#d4ced9" stroke="#d4ced9"></path><path d="M517 199.9L511.4 170.3L477.6 205.9Z" fill="#95a5b9" stroke="#95a5b9"></path><path d="M331.7 253.7L407.6 325.7L449.6 276.3Z" fill="#4b818b" stroke="#4b818b"></path><path d="M629.9 791.7L764.3 751.3L622.9 657.3Z" fill="#357477" stroke="#357477"></path><path d="M780.7 712.3L865.1 738.3L845.1 613.4Z" fill="#acb2c5" stroke="#acb2c5"></path><path d="M331.7 253.7L355.1 160.3L332.7 176.9Z" fill="#7c99ac" stroke="#7c99ac"></path><path d="M657.3 130.9L640.9 164.3L667.9 196.9Z" fill="#4b818b" stroke="#4b818b"></path><path d="M667.9 196.9L640.9 164.3L609.9 310.7Z" fill="#95a5b9" stroke="#95a5b9"></path><path d="M764.3 751.3L795.1 731.7L780.7 712.3Z" fill="#c1bfcf" stroke="#c1bfcf"></path><path d="M288.7 379.1L262.7 374.6L290.1 457.6Z" fill="#4b818b" stroke="#4b818b"></path><path d="M192.3 528L309.1 569L315.7 496Z" fill="#7c99ac" stroke="#7c99ac"></path><path d="M306.1 303.7L262.7 374.6L288.7 379.1Z" fill="#174d32" stroke="#174d32"></path><path d="M192.3 528L315.7 496L290.1 457.6Z" fill="#638d9d" stroke="#638d9d"></path><path d="M309.1 569L263.3 600.4L338.7 610.4Z" fill="#195b4a" stroke="#195b4a"></path><path d="M331.7 253.7L449.6 276.3L355.1 160.3Z" fill="#357477" stroke="#357477"></path><path d="M306.1 303.7L272.7 271.3L262.7 374.6Z" fill="#acb2c5" stroke="#acb2c5"></path><path d="M941.6 677.3L910.6 580.9L845.1 613.4Z" fill="#acb2c5" stroke="#acb2c5"></path><path d="M845.1 613.4L910.6 580.9L810.7 538.4Z" fill="#95a5b9" stroke="#95a5b9"></path><path d="M869.1 484L922.1 402.6L783.7 412.6Z" fill="#638d9d" stroke="#638d9d"></path><path d="M866.6 155.3L727.7 171.3L723.3 264.7Z" fill="#95a5b9" stroke="#95a5b9"></path><path d="M640.9 164.3L570.4 133.9L517 199.9Z" fill="#357477" stroke="#357477"></path><path d="M511.4 170.3L443 144.3L477.6 205.9Z" fill="#174d32" stroke="#174d32"></path><path d="M657.3 130.9L570.4 133.9L640.9 164.3Z" fill="#195b4a" stroke="#195b4a"></path><path d="M957.6 478.6L922.1 402.6L869.1 484Z" fill="#357477" stroke="#357477"></path><path d="M820.7 323.1L891.1 251.3L723.3 264.7Z" fill="#4b818b" stroke="#4b818b"></path><path d="M263.3 600.4L309.7 724.3L338.7 610.4Z" fill="#c1bfcf" stroke="#c1bfcf"></path><path d="M910.6 580.9L934.6 530.4L869.1 484Z" fill="#638d9d" stroke="#638d9d"></path><path d="M576.4 30.4L554 124.4L570.4 133.9Z" fill="#195b4a" stroke="#195b4a"></path><path d="M570.4 133.9L554 124.4L511.4 170.3Z" fill="#174d32" stroke="#174d32"></path><path d="M407.6 839.7L423.1 815.7L401.1 843.1Z" fill="#638d9d" stroke="#638d9d"></path><path d="M400.6 756.3L423.1 815.7L558 756.7Z" fill="#acb2c5" stroke="#acb2c5"></path><path d="M560 861.1L664.3 849.7L629.9 791.7Z" fill="#d4ced9" stroke="#d4ced9"></path><path d="M727.7 171.3L657.3 130.9L667.9 196.9Z" fill="#195b4a" stroke="#195b4a"></path><path d="M554 124.4L443 144.3L511.4 170.3Z" fill="#357477" stroke="#357477"></path><path d="M332.7 176.9L272.7 271.3L331.7 253.7Z" fill="#174d32" stroke="#174d32"></path><path d="M331.7 253.7L272.7 271.3L306.1 303.7Z" fill="#c1bfcf" stroke="#c1bfcf"></path><path d="M974.6 384.1L919.1 340.1L922.1 402.6Z" fill="#174d32" stroke="#174d32"></path><path d="M922.1 402.6L919.1 340.1L815.7 328.7Z" fill="#c1bfcf" stroke="#c1bfcf"></path><path d="M560 861.1L629.9 791.7L565.4 784.7Z" fill="#d4ced9" stroke="#d4ced9"></path><path d="M629.9 791.7L664.3 849.7L764.3 751.3Z" fill="#4b818b" stroke="#4b818b"></path><path d="M764.3 751.3L813.1 787.1L795.1 731.7Z" fill="#acb2c5" stroke="#acb2c5"></path><path d="M423.1 815.7L560 861.1L565.4 784.7Z" fill="#357477" stroke="#357477"></path><path d="M934.6 530.4L957.6 478.6L869.1 484Z" fill="#4b818b" stroke="#4b818b"></path><path d="M778.7 861.1L813.1 787.1L764.3 751.3Z" fill="#7c99ac" stroke="#7c99ac"></path><path d="M795.1 731.7L865.1 738.3L780.7 712.3Z" fill="#236861" stroke="#236861"></path><path d="M910.6 580.9L975.6 553L934.6 530.4Z" fill="#357477" stroke="#357477"></path><path d="M813.1 787.1L865.1 738.3L795.1 731.7Z" fill="#357477" stroke="#357477"></path><path d="M934.6 530.4L1000 502.4L957.6 478.6Z" fill="#95a5b9" stroke="#95a5b9"></path><path d="M183.3 399.1L290.1 457.6L262.7 374.6Z" fill="#d4ced9" stroke="#d4ced9"></path><path d="M173.3 410.6L192.3 528L290.1 457.6Z" fill="#236861" stroke="#236861"></path><path d="M223.7 654.9L285.3 742.3L309.7 724.3Z" fill="#174d32" stroke="#174d32"></path><path d="M223.7 654.9L309.7 724.3L263.3 600.4Z" fill="#174d32" stroke="#174d32"></path><path d="M309.7 724.3L290.1 777.3L400.6 756.3Z" fill="#c1bfcf" stroke="#c1bfcf"></path><path d="M192.3 528L196.9 565.4L263.3 600.4Z" fill="#174d32" stroke="#174d32"></path><path d="M172.3 592.9L223.7 654.9L263.3 600.4Z" fill="#acb2c5" stroke="#acb2c5"></path><path d="M401.1 843.1L423.1 815.7L400.6 756.3Z" fill="#174d32" stroke="#174d32"></path><path d="M423.1 815.7L434.6 913.1L560 861.1Z" fill="#357477" stroke="#357477"></path><path d="M919.1 340.1L891.1 251.3L820.7 323.1Z" fill="#95a5b9" stroke="#95a5b9"></path><path d="M727.7 171.3L714.7 113.9L657.3 130.9Z" fill="#7c99ac" stroke="#7c99ac"></path><path d="M355.1 160.3L449.6 276.3L477.6 205.9Z" fill="#236861" stroke="#236861"></path><path d="M443 144.3L355.1 160.3L477.6 205.9Z" fill="#c1bfcf" stroke="#c1bfcf"></path><path d="M778.7 861.1L821.7 797.7L813.1 787.1Z" fill="#7c99ac" stroke="#7c99ac"></path><path d="M813.1 787.1L821.7 797.7L865.1 738.3Z" fill="#7c99ac" stroke="#7c99ac"></path><path d="M797.7 76.4L714.7 113.9L727.7 171.3Z" fill="#c1bfcf" stroke="#c1bfcf"></path><path d="M657.3 130.9L576.4 30.4L570.4 133.9Z" fill="#95a5b9" stroke="#95a5b9"></path><path d="M919.1 340.1L898.1 252.7L891.1 251.3Z" fill="#95a5b9" stroke="#95a5b9"></path><path d="M891.1 251.3L866.6 155.3L723.3 264.7Z" fill="#174d32" stroke="#174d32"></path><path d="M895.6 233.7L898.1 252.7L1000 212.3Z" fill="#7c99ac" stroke="#7c99ac"></path><path d="M290.1 777.3L401.1 843.1L400.6 756.3Z" fill="#174d32" stroke="#174d32"></path><path d="M528 938.6L588.9 908.6L560 861.1Z" fill="#195b4a" stroke="#195b4a"></path><path d="M982.6 767.7L910.1 702.9L865.1 738.3Z" fill="#638d9d" stroke="#638d9d"></path><path d="M865.1 738.3L910.1 702.9L845.1 613.4Z" fill="#195b4a" stroke="#195b4a"></path><path d="M173.3 410.6L183.3 399.1L162.3 314.7Z" fill="#638d9d" stroke="#638d9d"></path><path d="M175.9 313.1L183.3 399.1L262.7 374.6Z" fill="#174d32" stroke="#174d32"></path><path d="M1000 626.9L975.6 553L910.6 580.9Z" fill="#357477" stroke="#357477"></path><path d="M1000 270.7L898.1 252.7L919.1 340.1Z" fill="#d4ced9" stroke="#d4ced9"></path><path d="M898.1 252.7L895.6 233.7L891.1 251.3Z" fill="#c1bfcf" stroke="#c1bfcf"></path><path d="M199.3 825.7L290.1 777.3L285.3 742.3Z" fill="#acb2c5" stroke="#acb2c5"></path><path d="M285.3 742.3L290.1 777.3L309.7 724.3Z" fill="#174d32" stroke="#174d32"></path><path d="M175.9 313.1L262.7 374.6L272.7 271.3Z" fill="#4b818b" stroke="#4b818b"></path><path d="M183.3 399.1L173.3 410.6L290.1 457.6Z" fill="#95a5b9" stroke="#95a5b9"></path><path d="M192.3 528L169.9 567L196.9 565.4Z" fill="#acb2c5" stroke="#acb2c5"></path><path d="M644.9 913.1L683.3 883.1L664.3 849.7Z" fill="#c1bfcf" stroke="#c1bfcf"></path><path d="M664.3 849.7L778.7 861.1L764.3 751.3Z" fill="#236861" stroke="#236861"></path><path d="M588.9 908.6L664.3 849.7L560 861.1Z" fill="#d4ced9" stroke="#d4ced9"></path><path d="M1000 434.6L922.1 402.6L957.6 478.6Z" fill="#357477" stroke="#357477"></path><path d="M1000 434.6L974.6 384.1L922.1 402.6Z" fill="#d4ced9" stroke="#d4ced9"></path><path d="M910.1 702.9L941.6 677.3L845.1 613.4Z" fill="#174d32" stroke="#174d32"></path><path d="M982.6 767.7L941.6 677.3L910.1 702.9Z" fill="#7c99ac" stroke="#7c99ac"></path><path d="M128.4 569.4L169.9 567L192.3 528Z" fill="#7c99ac" stroke="#7c99ac"></path><path d="M196.9 565.4L172.3 592.9L263.3 600.4Z" fill="#638d9d" stroke="#638d9d"></path><path d="M223.7 654.9L202.9 691.3L285.3 742.3Z" fill="#95a5b9" stroke="#95a5b9"></path><path d="M169.9 567L172.3 592.9L196.9 565.4Z" fill="#acb2c5" stroke="#acb2c5"></path><path d="M434.6 913.1L423.1 815.7L407.6 839.7Z" fill="#638d9d" stroke="#638d9d"></path><path d="M1000 553L1000 502.4L975.6 553Z" fill="#d4ced9" stroke="#d4ced9"></path><path d="M975.6 553L1000 502.4L934.6 530.4Z" fill="#d4ced9" stroke="#d4ced9"></path><path d="M355.1 160.3L252.3 134.4L332.7 176.9Z" fill="#acb2c5" stroke="#acb2c5"></path><path d="M443 144.3L373.6 105.4L355.1 160.3Z" fill="#7c99ac" stroke="#7c99ac"></path><path d="M554 124.4L426.1 89.9L443 144.3Z" fill="#638d9d" stroke="#638d9d"></path><path d="M576.4 30.4L426.1 89.9L554 124.4Z" fill="#4b818b" stroke="#4b818b"></path><path d="M683.3 883.1L778.7 861.1L664.3 849.7Z" fill="#c1bfcf" stroke="#c1bfcf"></path><path d="M821.7 797.7L873.6 851.1L865.1 738.3Z" fill="#174d32" stroke="#174d32"></path><path d="M678.9 1000L778.7 861.1L683.3 883.1Z" fill="#7c99ac" stroke="#7c99ac"></path><path d="M172.3 592.9L202.9 691.3L223.7 654.9Z" fill="#174d32" stroke="#174d32"></path><path d="M1000 502.4L1000 434.6L957.6 478.6Z" fill="#638d9d" stroke="#638d9d"></path><path d="M1000 626.9L1000 553L975.6 553Z" fill="#638d9d" stroke="#638d9d"></path><path d="M426.1 89.9L373.6 105.4L443 144.3Z" fill="#174d32" stroke="#174d32"></path><path d="M138.9 283.7L175.9 313.1L272.7 271.3Z" fill="#acb2c5" stroke="#acb2c5"></path><path d="M588.9 908.6L644.9 913.1L664.3 849.7Z" fill="#4b818b" stroke="#4b818b"></path><path d="M162.3 314.7L175.9 313.1L138.9 283.7Z" fill="#c1bfcf" stroke="#c1bfcf"></path><path d="M290.1 777.3L363.6 868.6L401.1 843.1Z" fill="#236861" stroke="#236861"></path><path d="M401.1 843.1L434.6 913.1L407.6 839.7Z" fill="#7c99ac" stroke="#7c99ac"></path><path d="M253.7 850.7L363.6 868.6L290.1 777.3Z" fill="#acb2c5" stroke="#acb2c5"></path><path d="M121.9 437.6L138.4 465L173.3 410.6Z" fill="#7c99ac" stroke="#7c99ac"></path><path d="M173.3 410.6L138.4 465L192.3 528Z" fill="#4b818b" stroke="#4b818b"></path><path d="M169.9 567L128.4 569.4L172.3 592.9Z" fill="#acb2c5" stroke="#acb2c5"></path><path d="M1000 434.6L1000 367.1L974.6 384.1Z" fill="#638d9d" stroke="#638d9d"></path><path d="M974.6 384.1L1000 367.1L919.1 340.1Z" fill="#236861" stroke="#236861"></path><path d="M879.6 139.9L866.6 155.3L895.6 233.7Z" fill="#195b4a" stroke="#195b4a"></path><path d="M895.6 233.7L866.6 155.3L891.1 251.3Z" fill="#4b818b" stroke="#4b818b"></path><path d="M588.9 908.6L641.4 927.1L644.9 913.1Z" fill="#174d32" stroke="#174d32"></path><path d="M644.9 913.1L641.4 927.1L683.3 883.1Z" fill="#195b4a" stroke="#195b4a"></path><path d="M641.4 979.6L641.4 927.1L588.9 908.6Z" fill="#174d32" stroke="#174d32"></path><path d="M982.6 767.7L1000 626.9L941.6 677.3Z" fill="#638d9d" stroke="#638d9d"></path><path d="M941.6 677.3L1000 626.9L910.6 580.9Z" fill="#4b818b" stroke="#4b818b"></path><path d="M252.3 134.4L272.7 271.3L332.7 176.9Z" fill="#174d32" stroke="#174d32"></path><path d="M175.9 313.1L162.3 314.7L183.3 399.1Z" fill="#c1bfcf" stroke="#c1bfcf"></path><path d="M363.6 868.6L434.6 913.1L401.1 843.1Z" fill="#acb2c5" stroke="#acb2c5"></path><path d="M797.7 76.4L711.3 54.4L714.7 113.9Z" fill="#95a5b9" stroke="#95a5b9"></path><path d="M714.7 113.9L711.3 54.4L657.3 130.9Z" fill="#357477" stroke="#357477"></path><path d="M434.6 913.1L528 938.6L560 861.1Z" fill="#4b818b" stroke="#4b818b"></path><path d="M138.4 465L128.4 569.4L192.3 528Z" fill="#7c99ac" stroke="#7c99ac"></path><path d="M172.3 592.9L131.4 747.3L202.9 691.3Z" fill="#d4ced9" stroke="#d4ced9"></path><path d="M680.9 23.4L576.4 30.4L657.3 130.9Z" fill="#195b4a" stroke="#195b4a"></path><path d="M426.1 89.9L388.1 0L373.6 105.4Z" fill="#acb2c5" stroke="#acb2c5"></path><path d="M162.3 314.7L121.9 437.6L173.3 410.6Z" fill="#7c99ac" stroke="#7c99ac"></path><path d="M138.4 465L116.9 573.9L128.4 569.4Z" fill="#195b4a" stroke="#195b4a"></path><path d="M966.6 115.4L879.6 139.9L895.6 233.7Z" fill="#c1bfcf" stroke="#c1bfcf"></path><path d="M866.6 155.3L797.7 76.4L727.7 171.3Z" fill="#acb2c5" stroke="#acb2c5"></path><path d="M870.1 106.9L797.7 76.4L866.6 155.3Z" fill="#4b818b" stroke="#4b818b"></path><path d="M55.4 443.6L116.9 573.9L138.4 465Z" fill="#c1bfcf" stroke="#c1bfcf"></path><path d="M128.4 569.4L116.9 573.9L172.3 592.9Z" fill="#d4ced9" stroke="#d4ced9"></path><path d="M853.7 868.6L821.7 797.7L778.7 861.1Z" fill="#95a5b9" stroke="#95a5b9"></path><path d="M853.7 868.6L873.6 851.1L821.7 797.7Z" fill="#7c99ac" stroke="#7c99ac"></path><path d="M846.1 878.6L853.7 868.6L778.7 861.1Z" fill="#7c99ac" stroke="#7c99ac"></path><path d="M725.7 0L680.9 23.4L711.3 54.4Z" fill="#7c99ac" stroke="#7c99ac"></path><path d="M711.3 54.4L680.9 23.4L657.3 130.9Z" fill="#195b4a" stroke="#195b4a"></path><path d="M1000 367.1L1000 270.7L919.1 340.1Z" fill="#95a5b9" stroke="#95a5b9"></path><path d="M845.7 1000L846.1 878.6L778.7 861.1Z" fill="#7c99ac" stroke="#7c99ac"></path><path d="M922.1 1000L1000 920.6L873.6 851.1Z" fill="#174d32" stroke="#174d32"></path><path d="M373.6 105.4L252.3 134.4L355.1 160.3Z" fill="#195b4a" stroke="#195b4a"></path><path d="M295.1 0.4L252.3 134.4L373.6 105.4Z" fill="#4b818b" stroke="#4b818b"></path><path d="M879.6 139.9L870.1 106.9L866.6 155.3Z" fill="#357477" stroke="#357477"></path><path d="M773.3 0L725.7 0L711.3 54.4Z" fill="#acb2c5" stroke="#acb2c5"></path><path d="M966.6 115.4L870.1 106.9L879.6 139.9Z" fill="#195b4a" stroke="#195b4a"></path><path d="M167.3 149.3L138.9 283.7L272.7 271.3Z" fill="#acb2c5" stroke="#acb2c5"></path><path d="M39.4 381.1L55.4 443.6L121.9 437.6Z" fill="#638d9d" stroke="#638d9d"></path><path d="M624.9 0L575.4 0L576.4 30.4Z" fill="#236861" stroke="#236861"></path><path d="M576.4 30.4L431 0L426.1 89.9Z" fill="#4b818b" stroke="#4b818b"></path><path d="M199.3 825.7L285.3 742.3L202.9 691.3Z" fill="#357477" stroke="#357477"></path><path d="M199.3 825.7L253.7 850.7L290.1 777.3Z" fill="#638d9d" stroke="#638d9d"></path><path d="M363.6 868.6L394.1 938.6L434.6 913.1Z" fill="#c1bfcf" stroke="#c1bfcf"></path><path d="M309.7 1000L394.1 938.6L363.6 868.6Z" fill="#195b4a" stroke="#195b4a"></path><path d="M434.6 913.1L464 1000L528 938.6Z" fill="#4b818b" stroke="#4b818b"></path><path d="M680.9 23.4L624.9 0L576.4 30.4Z" fill="#95a5b9" stroke="#95a5b9"></path><path d="M1000 781.3L982.6 767.7L1000 824.7Z" fill="#357477" stroke="#357477"></path><path d="M873.6 851.1L982.6 767.7L865.1 738.3Z" fill="#7c99ac" stroke="#7c99ac"></path><path d="M561.4 1000L641.4 979.6L588.9 908.6Z" fill="#7c99ac" stroke="#7c99ac"></path><path d="M641.4 927.1L678.9 1000L683.3 883.1Z" fill="#195b4a" stroke="#195b4a"></path><path d="M646.3 987.6L641.4 979.6L561.4 1000Z" fill="#638d9d" stroke="#638d9d"></path><path d="M1000 270.7L1000 212.3L898.1 252.7Z" fill="#acb2c5" stroke="#acb2c5"></path><path d="M561.4 1000L588.9 908.6L528 938.6Z" fill="#236861" stroke="#236861"></path><path d="M641.4 979.6L678.9 1000L641.4 927.1Z" fill="#195b4a" stroke="#195b4a"></path><path d="M131.4 747.3L199.3 825.7L202.9 691.3Z" fill="#c1bfcf" stroke="#c1bfcf"></path><path d="M408.1 1000L420.6 1000L394.1 938.6Z" fill="#638d9d" stroke="#638d9d"></path><path d="M575.4 0L431 0L576.4 30.4Z" fill="#c1bfcf" stroke="#c1bfcf"></path><path d="M773.3 0L711.3 54.4L797.7 76.4Z" fill="#638d9d" stroke="#638d9d"></path><path d="M680.9 23.4L725.7 0L624.9 0Z" fill="#236861" stroke="#236861"></path><path d="M464 1000L561.4 1000L528 938.6Z" fill="#174d32" stroke="#174d32"></path><path d="M116.9 573.9L131.4 747.3L172.3 592.9Z" fill="#7c99ac" stroke="#7c99ac"></path><path d="M1000 824.7L982.6 767.7L873.6 851.1Z" fill="#236861" stroke="#236861"></path><path d="M982.6 767.7L1000 781.3L1000 626.9Z" fill="#195b4a" stroke="#195b4a"></path><path d="M903.6 0L844.1 43.4L870.1 106.9Z" fill="#236861" stroke="#236861"></path><path d="M870.1 106.9L844.1 43.4L797.7 76.4Z" fill="#d4ced9" stroke="#d4ced9"></path><path d="M431 0L388.1 0L426.1 89.9Z" fill="#7c99ac" stroke="#7c99ac"></path><path d="M561.4 1000L670.3 1000L646.3 987.6Z" fill="#638d9d" stroke="#638d9d"></path><path d="M646.3 987.6L670.3 1000L641.4 979.6Z" fill="#d4ced9" stroke="#d4ced9"></path><path d="M1000 855.1L1000 824.7L873.6 851.1Z" fill="#174d32" stroke="#174d32"></path><path d="M184.3 838.1L189.9 837.7L199.3 825.7Z" fill="#174d32" stroke="#174d32"></path><path d="M199.3 825.7L189.9 837.7L253.7 850.7Z" fill="#c1bfcf" stroke="#c1bfcf"></path><path d="M39.4 381.1L121.9 437.6L162.3 314.7Z" fill="#357477" stroke="#357477"></path><path d="M121.9 437.6L55.4 443.6L138.4 465Z" fill="#236861" stroke="#236861"></path><path d="M116.9 573.9L27.4 605.9L131.4 747.3Z" fill="#357477" stroke="#357477"></path><path d="M670.3 1000L678.9 1000L641.4 979.6Z" fill="#c1bfcf" stroke="#c1bfcf"></path><path d="M844.1 43.4L773.3 0L797.7 76.4Z" fill="#4b818b" stroke="#4b818b"></path><path d="M420.6 1000L464 1000L434.6 913.1Z" fill="#4b818b" stroke="#4b818b"></path><path d="M420.6 1000L434.6 913.1L394.1 938.6Z" fill="#638d9d" stroke="#638d9d"></path><path d="M131.4 747.3L184.3 838.1L199.3 825.7Z" fill="#195b4a" stroke="#195b4a"></path><path d="M189.9 837.7L242.7 912.1L253.7 850.7Z" fill="#95a5b9" stroke="#95a5b9"></path><path d="M252.3 134.4L167.3 149.3L272.7 271.3Z" fill="#638d9d" stroke="#638d9d"></path><path d="M138.9 283.7L62.4 307.7L162.3 314.7Z" fill="#174d32" stroke="#174d32"></path><path d="M142.4 70.9L167.3 149.3L252.3 134.4Z" fill="#357477" stroke="#357477"></path><path d="M153.3 150.9L100.9 246.3L138.9 283.7Z" fill="#7c99ac" stroke="#7c99ac"></path><path d="M388.1 0L357.6 0L373.6 105.4Z" fill="#95a5b9" stroke="#95a5b9"></path><path d="M408.1 1000L394.1 938.6L309.7 1000Z" fill="#357477" stroke="#357477"></path><path d="M1000 212.3L966.6 115.4L895.6 233.7Z" fill="#d4ced9" stroke="#d4ced9"></path><path d="M844.1 43.4L903.6 0L773.3 0Z" fill="#95a5b9" stroke="#95a5b9"></path><path d="M101.9 122.9L153.3 150.9L142.4 70.9Z" fill="#7c99ac" stroke="#7c99ac"></path><path d="M167.3 149.3L153.3 150.9L138.9 283.7Z" fill="#174d32" stroke="#174d32"></path><path d="M242.7 912.1L363.6 868.6L253.7 850.7Z" fill="#7c99ac" stroke="#7c99ac"></path><path d="M187.3 928.6L242.7 912.1L189.9 837.7Z" fill="#638d9d" stroke="#638d9d"></path><path d="M1000 855.1L873.6 851.1L1000 920.6Z" fill="#4b818b" stroke="#4b818b"></path><path d="M100.9 246.3L62.4 307.7L138.9 283.7Z" fill="#236861" stroke="#236861"></path><path d="M0 264.7L62.4 307.7L100.9 246.3Z" fill="#236861" stroke="#236861"></path><path d="M62.4 307.7L39.4 381.1L162.3 314.7Z" fill="#357477" stroke="#357477"></path><path d="M0 571.9L27.4 605.9L116.9 573.9Z" fill="#c1bfcf" stroke="#c1bfcf"></path><path d="M1000 212.3L1000 122.9L966.6 115.4Z" fill="#c1bfcf" stroke="#c1bfcf"></path><path d="M909.1 0L903.6 0L870.1 106.9Z" fill="#638d9d" stroke="#638d9d"></path><path d="M357.6 0L295.1 0.4L373.6 105.4Z" fill="#d4ced9" stroke="#d4ced9"></path><path d="M873.6 851.1L853.7 868.6L922.1 1000Z" fill="#174d32" stroke="#174d32"></path><path d="M0 497.6L116.9 573.9L55.4 443.6Z" fill="#acb2c5" stroke="#acb2c5"></path><path d="M131.4 747.3L120.9 835.1L184.3 838.1Z" fill="#236861" stroke="#236861"></path><path d="M357.6 0L278.3 0L295.1 0.4Z" fill="#7c99ac" stroke="#7c99ac"></path><path d="M295.1 0.4L278.3 0L252.3 134.4Z" fill="#195b4a" stroke="#195b4a"></path><path d="M36.4 816.7L120.9 835.1L131.4 747.3Z" fill="#4b818b" stroke="#4b818b"></path><path d="M187.3 928.6L229.7 952.6L242.7 912.1Z" fill="#4b818b" stroke="#4b818b"></path><path d="M0 464L0 497.6L55.4 443.6Z" fill="#357477" stroke="#357477"></path><path d="M0 464L55.4 443.6L0 401.1Z" fill="#638d9d" stroke="#638d9d"></path><path d="M0 401.1L55.4 443.6L39.4 381.1Z" fill="#357477" stroke="#357477"></path><path d="M229.7 952.6L309.7 1000L242.7 912.1Z" fill="#7c99ac" stroke="#7c99ac"></path><path d="M242.7 912.1L309.7 1000L363.6 868.6Z" fill="#236861" stroke="#236861"></path><path d="M278.3 0L262.7 0L252.3 134.4Z" fill="#4b818b" stroke="#4b818b"></path><path d="M678.9 1000L845.7 1000L778.7 861.1Z" fill="#7c99ac" stroke="#7c99ac"></path><path d="M187.3 928.6L189.9 837.7L184.3 838.1Z" fill="#c1bfcf" stroke="#c1bfcf"></path><path d="M0 264.7L39.4 381.1L62.4 307.7Z" fill="#7c99ac" stroke="#7c99ac"></path><path d="M0 264.7L0 401.1L39.4 381.1Z" fill="#acb2c5" stroke="#acb2c5"></path><path d="M0 497.6L0 571.9L116.9 573.9Z" fill="#d4ced9" stroke="#d4ced9"></path><path d="M27.4 605.9L0 690.3L131.4 747.3Z" fill="#95a5b9" stroke="#95a5b9"></path><path d="M909.1 0L870.1 106.9L966.6 115.4Z" fill="#d4ced9" stroke="#d4ced9"></path><path d="M120.9 835.1L187.3 928.6L184.3 838.1Z" fill="#638d9d" stroke="#638d9d"></path><path d="M229.7 952.6L160.3 1000L309.7 1000Z" fill="#638d9d" stroke="#638d9d"></path><path d="M1000 21.4L909.1 0L966.6 115.4Z" fill="#d4ced9" stroke="#d4ced9"></path><path d="M0 571.9L0 627.4L27.4 605.9Z" fill="#7c99ac" stroke="#7c99ac"></path><path d="M262.7 0L222.7 8.4L252.3 134.4Z" fill="#638d9d" stroke="#638d9d"></path><path d="M153.3 150.9L101.9 122.9L100.9 246.3Z" fill="#638d9d" stroke="#638d9d"></path><path d="M142.4 70.9L153.3 150.9L167.3 149.3Z" fill="#acb2c5" stroke="#acb2c5"></path><path d="M222.7 8.4L142.4 70.9L252.3 134.4Z" fill="#95a5b9" stroke="#95a5b9"></path><path d="M922.1 1000L853.7 868.6L846.1 878.6Z" fill="#7c99ac" stroke="#7c99ac"></path><path d="M0 627.4L0 690.3L27.4 605.9Z" fill="#d4ced9" stroke="#d4ced9"></path><path d="M89.4 868.1L174.9 948.6L187.3 928.6Z" fill="#4b818b" stroke="#4b818b"></path><path d="M89.4 868.1L187.3 928.6L120.9 835.1Z" fill="#acb2c5" stroke="#acb2c5"></path><path d="M187.3 928.6L174.9 948.6L229.7 952.6Z" fill="#174d32" stroke="#174d32"></path><path d="M30.4 197.3L0 264.7L100.9 246.3Z" fill="#174d32" stroke="#174d32"></path><path d="M0 149.3L30.4 197.3L101.9 122.9Z" fill="#95a5b9" stroke="#95a5b9"></path><path d="M101.9 122.9L30.4 197.3L100.9 246.3Z" fill="#c1bfcf" stroke="#c1bfcf"></path><path d="M36.4 816.7L89.4 868.1L120.9 835.1Z" fill="#c1bfcf" stroke="#c1bfcf"></path><path d="M845.7 1000L922.1 1000L846.1 878.6Z" fill="#195b4a" stroke="#195b4a"></path><path d="M0 690.3L0 725.7L131.4 747.3Z" fill="#195b4a" stroke="#195b4a"></path><path d="M262.7 0L181.9 0L222.7 8.4Z" fill="#acb2c5" stroke="#acb2c5"></path><path d="M222.7 8.4L181.9 0L142.4 70.9Z" fill="#195b4a" stroke="#195b4a"></path><path d="M142.4 70.9L16.4 58.4L101.9 122.9Z" fill="#7c99ac" stroke="#7c99ac"></path><path d="M1000 122.9L1000 21.4L966.6 115.4Z" fill="#357477" stroke="#357477"></path><path d="M0 725.7L36.4 816.7L131.4 747.3Z" fill="#acb2c5" stroke="#acb2c5"></path><path d="M922.1 1000L948.6 1000L1000 920.6Z" fill="#95a5b9" stroke="#95a5b9"></path><path d="M1000 21.4L1000 0L909.1 0Z" fill="#638d9d" stroke="#638d9d"></path><path d="M948.6 1000L993.6 995.6L1000 920.6Z" fill="#acb2c5" stroke="#acb2c5"></path><path d="M128.4 1000L160.3 1000L174.9 948.6Z" fill="#236861" stroke="#236861"></path><path d="M174.9 948.6L160.3 1000L229.7 952.6Z" fill="#174d32" stroke="#174d32"></path><path d="M128.4 1000L174.9 948.6L70.4 955.6Z" fill="#c1bfcf" stroke="#c1bfcf"></path><path d="M181.9 0L114.9 10.4L142.4 70.9Z" fill="#d4ced9" stroke="#d4ced9"></path><path d="M948.6 1000L1000 1000L993.6 995.6Z" fill="#acb2c5" stroke="#acb2c5"></path><path d="M993.6 995.6L1000 1000L1000 920.6Z" fill="#236861" stroke="#236861"></path><path d="M0 77.9L0 149.3L101.9 122.9Z" fill="#d4ced9" stroke="#d4ced9"></path><path d="M30.4 197.3L0 149.3L0 264.7Z" fill="#4b818b" stroke="#4b818b"></path><path d="M0 725.7L0 831.1L36.4 816.7Z" fill="#357477" stroke="#357477"></path><path d="M36.4 816.7L0 831.1L89.4 868.1Z" fill="#c1bfcf" stroke="#c1bfcf"></path><path d="M70.4 955.6L174.9 948.6L89.4 868.1Z" fill="#d4ced9" stroke="#d4ced9"></path><path d="M0 831.1L70.4 955.6L89.4 868.1Z" fill="#357477" stroke="#357477"></path><path d="M181.9 0L81.4 0L114.9 10.4Z" fill="#acb2c5" stroke="#acb2c5"></path><path d="M114.9 10.4L81.4 0L142.4 70.9Z" fill="#4b818b" stroke="#4b818b"></path><path d="M81.4 0L16.4 58.4L142.4 70.9Z" fill="#95a5b9" stroke="#95a5b9"></path><path d="M16.4 58.4L0 77.9L101.9 122.9Z" fill="#4b818b" stroke="#4b818b"></path><path d="M0 978.6L82.9 1000L70.4 955.6Z" fill="#c1bfcf" stroke="#c1bfcf"></path><path d="M70.4 955.6L82.9 1000L128.4 1000Z" fill="#638d9d" stroke="#638d9d"></path><path d="M81.4 0L0 35.4L16.4 58.4Z" fill="#236861" stroke="#236861"></path><path d="M16.4 58.4L0 35.4L0 77.9Z" fill="#236861" stroke="#236861"></path><path d="M81.4 0L0 0L0 35.4Z" fill="#236861" stroke="#236861"></path><path d="M0 831.1L0 978.6L70.4 955.6Z" fill="#4b818b" stroke="#4b818b"></path><path d="M0 978.6L0 1000L82.9 1000Z" fill="#95a5b9" stroke="#95a5b9"></path></g></svg>